<svg width="1584" height="396" viewBox="0 0 1584 396" fill="none" xmlns="http://www.w3.org/2000/svg">
<rect width="1584" height="396" fill="#F5F5F5"/>
<g id="Awesome banner" clip-path="url(#clip0_0_1)">
<rect width="1584" height="396" fill="url(#paint0_linear_0_1)"/>
<ellipse id="Ellipse 2" cx="323" cy="64" rx="285" ry="288" fill="url(#paint1_linear_0_1)" fill-opacity="0.1"/>
<g id="copyright">
<path d="M75.95 334.52L72.30 334.52L72.30 311.16L77.20 311.16L83.70 330.04Q83.60 329.02 83.50 327.62Q83.41 326.23 83.33 324.79Q83.25 323.35 83.25 322.23L83.25 311.16L86.90 311.16L86.90 334.52L82 334.52L75.57 315.64Q75.63 316.57 75.73 317.88Q75.82 319.19 75.89 320.57Q75.95 321.94 75.95 323.10L75.95 334.52M98.80 334.84Q96.46 334.84 94.67 333.96Q92.88 333.08 91.89 331.53Q90.90 329.98 90.90 327.93Q90.90 325.78 92.13 324.18Q93.36 322.58 95.34 322.17L95.34 322.10Q93.65 321.75 92.61 320.38Q91.57 319 91.57 317.11Q91.57 315.26 92.48 313.85Q93.39 312.44 95.02 311.64Q96.66 310.84 98.80 310.84Q100.94 310.84 102.59 311.64Q104.24 312.44 105.15 313.85Q106.06 315.26 106.06 317.11Q106.06 319 105.01 320.38Q103.95 321.75 102.26 322.10L102.26 322.17Q104.24 322.58 105.47 324.18Q106.70 325.78 106.70 327.93Q106.70 329.98 105.71 331.53Q104.72 333.08 102.93 333.96Q101.14 334.84 98.80 334.84M98.80 320.73Q100.30 320.73 101.23 319.82Q102.16 318.90 102.16 317.46Q102.16 315.99 101.23 315.08Q100.30 314.17 98.80 314.17Q97.30 314.17 96.37 315.08Q95.44 315.99 95.44 317.46Q95.44 318.90 96.37 319.82Q97.30 320.73 98.80 320.73M98.80 331.45Q100.56 331.45 101.68 330.42Q102.80 329.40 102.80 327.74Q102.80 326.04 101.68 325Q100.56 323.96 98.80 323.96Q97.04 323.96 95.92 325Q94.80 326.04 94.80 327.74Q94.80 329.40 95.92 330.42Q97.04 331.45 98.80 331.45M114.35 334.52L110.70 334.52L110.70 311.16L115.60 311.16L122.10 330.04Q122 329.02 121.90 327.62Q121.81 326.23 121.73 324.79Q121.65 323.35 121.65 322.23L121.65 311.16L125.30 311.16L125.30 334.52L120.40 334.52L113.97 315.64Q114.03 316.57 114.13 317.88Q114.22 319.19 114.29 320.57Q114.35 321.94 114.35 323.10" fill="white" fill-opacity="0.9"/>
<path d="M161.48 325.24L151.24 325.24L151.24 322.68L161.48 322.68" fill="white" fill-opacity="0.9"/>
<path d="M195.02 334.84Q191.82 334.84 189.96 333.05Q188.11 331.26 188.11 328.12L188.11 317.56Q188.11 314.42 189.96 312.63Q191.82 310.84 195.02 310.84Q198.15 310.84 200.01 312.65Q201.87 314.46 201.87 317.56L198.99 317.56Q198.99 315.58 197.95 314.50Q196.91 313.43 195.02 313.43Q193.13 313.43 192.06 314.50Q190.99 315.58 190.99 317.56L190.99 328.12Q190.99 330.10 192.06 331.18Q193.13 332.25 195.02 332.25Q196.91 332.25 197.95 331.18Q198.99 330.10 198.99 328.12L201.87 328.12Q201.87 331.22 200.01 333.03Q198.15 334.84 195.02 334.84" fill="white" fill-opacity="0.9"/>
<path d="M213.96 334.84Q210.83 334.84 209 333.02Q207.18 331.19 207.18 327.80L207.18 317.88Q207.18 314.49 209 312.66Q210.83 310.84 213.96 310.84Q217.10 310.84 218.92 312.66Q220.75 314.49 220.75 317.85L220.75 327.80Q220.75 331.19 218.92 333.02Q217.10 334.84 213.96 334.84M213.96 332.25Q215.85 332.25 216.86 331.18Q217.87 330.10 217.87 328.12L217.87 317.56Q217.87 315.58 216.86 314.50Q215.85 313.43 213.96 313.43Q212.11 313.43 211.08 314.50Q210.06 315.58 210.06 317.56L210.06 328.12Q210.06 330.10 211.08 331.18Q212.11 332.25 213.96 332.25" fill="white" fill-opacity="0.9"/>
<path d="M228.65 334.52L225.87 334.52L225.87 311.16L230.12 311.16L233.10 321.27L236.20 311.16L240.46 311.16L240.46 334.52L237.67 334.52L237.67 323.48Q237.67 321.91 237.72 319.88Q237.77 317.85 237.87 315.77Q237.96 313.69 238.09 312.02L234.31 324.09L231.82 324.09L228.20 312.31Q228.46 314.68 228.55 317.50Q228.65 320.31 228.65 323.48" fill="white" fill-opacity="0.9"/>
<path d="M247.85 334.52L245.07 334.52L245.07 311.16L249.32 311.16L252.30 321.27L255.40 311.16L259.66 311.16L259.66 334.52L256.87 334.52L256.87 323.48Q256.87 321.91 256.92 319.88Q256.97 317.85 257.07 315.77Q257.16 313.69 257.29 312.02L253.51 324.09L251.02 324.09L247.40 312.31Q247.66 314.68 247.75 317.50Q247.85 320.31 247.85 323.48" fill="white" fill-opacity="0.9"/>
<path d="M271.56 334.84Q268.30 334.84 266.57 333.03Q264.84 331.22 264.84 328.12L264.84 311.16L267.72 311.16L267.72 328.12Q267.72 330.04 268.67 331.16Q269.61 332.28 271.56 332.28Q273.48 332.28 274.44 331.16Q275.40 330.04 275.40 328.12L275.40 311.16L278.28 311.16L278.28 328.12Q278.28 331.26 276.57 333.05Q274.86 334.84 271.56 334.84" fill="white" fill-opacity="0.9"/>
<path d="M286.83 334.52L284.04 334.52L284.04 311.16L287.88 311.16L295.02 331.16Q294.95 330.36 294.87 329.19Q294.79 328.02 294.75 326.73Q294.70 325.43 294.70 324.28L294.70 311.16L297.48 311.16L297.48 334.52L293.64 334.52L286.54 314.52Q286.60 315.29 286.67 316.46Q286.73 317.62 286.78 318.92Q286.83 320.22 286.83 321.40" fill="white" fill-opacity="0.9"/>
<path d="M316.20 334.52L303.72 334.52L303.72 331.90L308.49 331.90L308.49 313.78L303.72 313.78L303.72 311.16L316.20 311.16L316.20 313.78L311.43 313.78L311.43 331.90L316.20 331.90" fill="white" fill-opacity="0.9"/>
<path d="M330.60 334.52L327.72 334.52L327.72 313.78L321.32 313.78L321.32 311.16L337 311.16L337 313.78L330.60 313.78" fill="white" fill-opacity="0.9"/>
<path d="M349.80 334.52L346.92 334.52L346.92 325.78L339.88 311.16L342.95 311.16L347.50 320.76Q347.88 321.56 348.11 322.12Q348.33 322.68 348.39 322.94Q348.46 322.68 348.70 322.12Q348.94 321.56 349.32 320.76L353.87 311.16L356.84 311.16L349.80 325.78" fill="white" fill-opacity="0.9"/>
<path d="M382.83 334.52L380.04 334.52L380.04 311.16L383.88 311.16L391.02 331.16Q390.95 330.36 390.87 329.19Q390.79 328.02 390.75 326.73Q390.70 325.43 390.70 324.28L390.70 311.16L393.48 311.16L393.48 334.52L389.64 334.52L382.54 314.52Q382.60 315.29 382.67 316.46Q382.73 317.62 382.78 318.92Q382.83 320.22 382.83 321.40" fill="white" fill-opacity="0.9"/>
<path d="M405.96 334.84Q402.83 334.84 401 333.02Q399.18 331.19 399.18 327.80L399.18 317.88Q399.18 314.49 401 312.66Q402.83 310.84 405.96 310.84Q409.10 310.84 410.92 312.66Q412.75 314.49 412.75 317.85L412.75 327.80Q412.75 331.19 410.92 333.02Q409.10 334.84 405.96 334.84M405.96 332.25Q407.85 332.25 408.86 331.18Q409.87 330.10 409.87 328.12L409.87 317.56Q409.87 315.58 408.86 314.50Q407.85 313.43 405.96 313.43Q404.11 313.43 403.08 314.50Q402.06 315.58 402.06 317.56L402.06 328.12Q402.06 330.10 403.08 331.18Q404.11 332.25 405.96 332.25" fill="white" fill-opacity="0.9"/>
<path d="M424.55 334.52L418.51 334.52L418.51 311.16L424.55 311.16Q426.83 311.16 428.47 312.02Q430.12 312.89 431.03 314.46Q431.95 316.02 431.95 318.17L431.95 327.48Q431.95 329.62 431.03 331.21Q430.12 332.79 428.47 333.66Q426.83 334.52 424.55 334.52M421.39 313.72L421.39 331.96L424.55 331.96Q426.67 331.96 427.87 330.78Q429.07 329.59 429.07 327.48L429.07 318.17Q429.07 316.09 427.87 314.90Q426.67 313.72 424.55 313.72" fill="white" fill-opacity="0.9"/>
<path d="M451.40 334.52L437.96 334.52L437.96 311.16L451.40 311.16L451.40 313.78L440.81 313.78L440.81 321.02L450.28 321.02L450.28 323.58L440.81 323.58L440.81 331.90L451.40 331.90" fill="white" fill-opacity="0.9"/>
<path d="M463.69 334.84Q460.30 334.84 458.28 333.05Q456.27 331.26 456.27 328.12L459.15 328.12Q459.15 330.07 460.39 331.18Q461.64 332.28 463.69 332.28Q465.67 332.28 466.86 331.13Q468.04 329.98 468.04 328.12Q468.04 326.71 467.29 325.67Q466.54 324.63 465.13 324.25L461.58 323.26Q459.37 322.62 458.11 320.97Q456.84 319.32 456.84 317.08Q456.84 315.22 457.67 313.82Q458.51 312.41 460.01 311.62Q461.51 310.84 463.47 310.84Q465.45 310.84 466.97 311.62Q468.49 312.41 469.35 313.80Q470.22 315.19 470.22 317.02L467.34 317.02Q467.34 315.42 466.25 314.41Q465.16 313.40 463.47 313.40Q461.77 313.40 460.71 314.41Q459.66 315.42 459.66 317.02Q459.66 318.30 460.35 319.21Q461.03 320.12 462.28 320.47L465.93 321.50Q468.27 322.14 469.56 323.91Q470.86 325.69 470.86 328.12Q470.86 331.19 468.91 333.02Q466.95 334.84 463.69 334.84" fill="white" fill-opacity="0.9"/>
</g>
<path d="M73.82 197.64L71.73 197.64L71.73 180.12L74.92 180.12L77.15 187.70L79.48 180.12L82.67 180.12L82.67 197.64L80.58 197.64L80.58 189.36Q80.58 188.18 80.62 186.66Q80.66 185.14 80.73 183.58Q80.80 182.02 80.90 180.77L78.06 189.82L76.19 189.82L73.48 180.98Q73.67 182.76 73.74 184.87Q73.82 186.98 73.82 189.36" fill="white" fill-opacity="0.7"/>
<path d="M90.45 197.88Q88.41 197.88 87.21 196.74Q86.01 195.60 86.01 193.75Q86.01 192.53 86.56 191.62Q87.11 190.70 88.10 190.19Q89.08 189.67 90.35 189.67L94.43 189.67L94.43 188.64Q94.43 186.07 91.62 186.07Q90.38 186.07 89.61 186.53Q88.84 186.98 88.79 187.80L86.63 187.80Q86.75 186.24 88.08 185.22Q89.42 184.20 91.62 184.20Q94.02 184.20 95.31 185.35Q96.59 186.50 96.59 188.57L96.59 197.64L94.46 197.64L94.46 195.24L94.41 195.24Q94.22 196.46 93.18 197.17Q92.15 197.88 90.45 197.88M90.98 196.06Q92.56 196.06 93.50 195.29Q94.43 194.52 94.43 193.20L94.43 191.35L90.59 191.35Q89.54 191.35 88.88 191.99Q88.22 192.62 88.22 193.68Q88.22 194.78 88.95 195.42Q89.68 196.06 90.98 196.06" fill="white" fill-opacity="0.7"/>
<path d="M106.53 197.83L105.47 197.83Q103.26 197.83 102.05 196.84Q100.84 195.84 100.84 194.02LNaN 194.02QNaN 194.93 103.65 195.44Q104.30 195.96 105.47 195.96L106.53 195.96Q107.73 195.96 108.39 195.43Q109.05 194.90 109.05 193.94Q109.05 192.24 107.49 192.02L103.84 191.50Q102.50 191.30 101.75 190.38Q101.01 189.46 101.01 187.94Q101.01 186.22 102.20 185.23Q103.38 184.25 105.47 184.25L106.53 184.25Q108.45 184.25 109.66 185.20Q110.87 186.14 110.97 187.68L108.78 187.68Q108.74 186.98 108.12 186.53Q107.51 186.07 106.53 186.07L105.47 186.07Q104.37 186.07 103.74 186.58Q103.12 187.08 103.12 187.94Q103.12 189.34 104.39 189.53L107.80 190.01Q111.16 190.49 111.16 193.94Q111.16 195.79 109.95 196.81Q108.74 197.83 106.53 197.83" fill="white" fill-opacity="0.7"/>
<path d="M125.56 197.64L121.72 197.64Q120.09 197.64 119.10 196.69Q118.12 195.74 118.12 194.16L118.12 186.41L114.33 186.41L114.33 184.44L118.12 184.44L118.12 180.72L120.28 180.72L120.28 184.44L125.68 184.44L125.68 186.41L120.28 186.41L120.28 194.16Q120.28 194.83 120.68 195.25Q121.07 195.67 121.72 195.67L125.56 195.67" fill="white" fill-opacity="0.7"/>
<path d="M134.80 197.88Q132.47 197.88 131.04 196.48Q129.62 195.07 129.62 192.60L129.62 189.48Q129.62 187.01 131.04 185.60Q132.47 184.20 134.80 184.20Q136.36 184.20 137.52 184.82Q138.69 185.45 139.34 186.58Q139.98 187.70 139.98 189.24L139.98 191.59L131.73 191.59L131.73 192.84Q131.73 194.30 132.57 195.16Q133.41 196.01 134.80 196.01QNaN 196.01 136.78 195.54Q137.56 195.07 137.73 194.28L139.89 194.28Q139.67 195.94 138.28 196.91Q136.89 197.88 134.80 197.88M131.73 189.24L131.73 189.91L137.87 189.91L137.87 189.24Q137.87 187.68 137.07 186.83Q136.26 185.98 134.80 185.98Q133.34 185.98 132.53 186.83Q131.73 187.68 131.73 189.24" fill="white" fill-opacity="0.7"/>
<path d="M146.85 197.64L144.69 197.64L144.69 184.44L146.85 184.44L146.85 186.96L146.90 186.96Q147.06 185.69 147.98 184.94Q148.89 184.20 150.42 184.20Q152.49 184.20 153.60 185.44Q154.72 186.67 154.72 188.95L154.72 190.08L152.56 190.08L152.56 188.95Q152.56 186.07 149.75 186.07Q148.34 186.07 147.59 186.89Q146.85 187.70 146.85 189.24" fill="white" fill-opacity="0.7"/>
<path d="M163.79 197.88Q161.39 197.88 159.95 196.54Q158.51 195.19 158.51 192.84L158.51 189.24Q158.51 186.89 159.95 185.54Q161.39 184.20 163.79 184.20Q166.07 184.20 167.48 185.42Q168.88 186.65 168.95 188.76L166.79 188.76Q166.72 187.49 165.93 186.80Q165.14 186.12 163.79 186.12Q162.38 186.12 161.52 186.92Q160.67 187.73 160.67 189.22L160.67 192.84Q160.67 194.33 161.52 195.14Q162.38 195.96 163.79 195.96Q165.14 195.96 165.93 195.26Q166.72 194.57 166.79 193.32L168.95 193.32Q168.88 195.43 167.48 196.66Q166.07 197.88 163.79 197.88" fill="white" fill-opacity="0.7"/>
<path d="M176.85 197.88Q174.81 197.88 173.61 196.74Q172.41 195.60 172.41 193.75Q172.41 192.53 172.96 191.62Q173.51 190.70 174.50 190.19Q175.48 189.67 176.75 189.67L180.83 189.67L180.83 188.64Q180.83 186.07 178.02 186.07Q176.78 186.07 176.01 186.53Q175.24 186.98 175.19 187.80L173.03 187.80Q173.15 186.24 174.48 185.22Q175.82 184.20 178.02 184.20Q180.42 184.20 181.71 185.35Q182.99 186.50 182.99 188.57L182.99 197.64L180.86 197.64L180.86 195.24L180.81 195.24Q180.62 196.46 179.58 197.17Q178.55 197.88 176.85 197.88M177.38 196.06Q178.96 196.06 179.90 195.29Q180.83 194.52 180.83 193.20L180.83 191.35L176.99 191.35Q175.94 191.35 175.28 191.99Q174.62 192.62 174.62 193.68Q174.62 194.78 175.35 195.42Q176.08 196.06 177.38 196.06" fill="white" fill-opacity="0.7"/>
<path d="M190.05 197.64L187.89 197.64L187.89 184.44L190.05 184.44L190.05 186.96L190.10 186.96Q190.26 185.69 191.18 184.94Q192.09 184.20 193.62 184.20Q195.69 184.20 196.80 185.44Q197.92 186.67 197.92 188.95L197.92 190.08L195.76 190.08L195.76 188.95Q195.76 186.07 192.95 186.07Q191.54 186.07 190.79 186.89Q190.05 187.70 190.05 189.24" fill="white" fill-opacity="0.7"/>
<path d="M206.03 197.88Q204.06 197.88 202.88 196.56Q201.69 195.24 201.69 192.98L201.69 189.12Q201.69 186.84 202.86 185.52Q204.04 184.20 206.03 184.20Q207.52 184.20 208.49 184.94Q209.46 185.69 209.66 186.96L209.68 186.96L209.63 183.96L209.63 180.12L211.79 180.12L211.79 197.64L209.63 197.64L209.63 195.12L209.61 195.12Q209.44 196.42 208.48 197.15Q207.52 197.88 206.03 197.88M206.75 196.01Q208.10 196.01 208.86 195.17Q209.63 194.33 209.63 192.84L209.63 189.24Q209.63 187.75 208.86 186.91Q208.10 186.07 206.75 186.07Q205.38 186.07 204.62 186.78Q203.85 187.49 203.85 189.12L203.85 192.96Q203.85 194.57 204.62 195.29Q205.38 196.01 206.75 196.01" fill="white" fill-opacity="0.7"/>
<path d="M231.81 197.64L229.60 197.64L234.16 180.12L237.06 180.12L241.60 197.64L239.42 197.64L238.26 192.98L232.96 192.98L231.81 197.64M234.74 185.74L233.39 191.16L237.81 191.16L236.46 185.76Q236.08 184.22 235.86 183.19Q235.65 182.16 235.60 181.85Q235.55 182.16 235.34 183.19Q235.12 184.22 234.74 185.74" fill="white" fill-opacity="0.7"/>
<path d="M250.36 197.64L245.03 197.64L245.03 180.12LNaN 180.12Q252.40 180.12 253.76 181.32Q255.11 182.52 255.11 184.66Q255.11 186 254.26 187.08Q253.41 188.16 252.04 188.42L252.04 188.50Q253.07 188.62 253.85 189.22Q254.63 189.82 255.08 190.74Q255.52 191.66 255.52 192.77Q255.52 195.02 254.14 196.33Q252.76 197.64 250.36 197.64M247.14 182.06L247.14 187.58L249.98 187.58Q251.37 187.58 252.17 186.84Q252.98 186.10 252.98 184.82Q252.98 183.55 252.18 182.81Q251.39 182.06 NaN 182.06L247.14 182.06M247.14 189.46L247.14 195.70L250.12 195.70Q251.63 195.70 252.51 194.89Q253.38 194.09 253.38 192.70Q253.38 191.26 252.51 190.36Q251.63 189.46 250.12 189.46" fill="white" fill-opacity="0.7"/>
<path d="M264.40 197.88Q261.95 197.88 260.66 196.52Q259.36 195.17 259.36 192.84L259.36 180.12L261.52 180.12L261.52 192.84Q261.52 194.28 262.23 195.12Q262.94 195.96 264.40 195.96Q265.84 195.96 266.56 195.12Q267.28 194.28 267.28 192.84L267.28 180.12L269.44 180.12L269.44 192.84Q269.44 195.19 268.16 196.54Q266.87 197.88 264.40 197.88" fill="white" fill-opacity="0.7"/>
<path d="M289.41 197.64L287.20 197.64L291.76 180.12L294.66 180.12L299.20 197.64L297.02 197.64L295.86 192.98L290.56 192.98L289.41 197.64M292.34 185.74L290.99 191.16L295.41 191.16L294.06 185.76Q293.68 184.22 293.46 183.19Q293.25 182.16 293.20 181.85Q293.15 182.16 292.94 183.19Q292.72 184.22 292.34 185.74" fill="white" fill-opacity="0.7"/>
<path d="M304.77 197.64L302.61 197.64L302.61 180.12L308.25 180.12Q310.70 180.12 312.15 181.52Q313.60 182.93 313.60 185.28Q313.60 187.63 312.15 189.04Q310.70 190.44 308.25 190.44L304.77 190.44L304.77 197.64M304.77 182.06L304.77 188.50L308.25 188.50Q309.66 188.50 310.52 187.62Q311.37 186.74 311.37 185.28Q311.37 183.79 310.52 182.93Q309.66 182.06 308.25 182.06" fill="white" fill-opacity="0.7"/>
<path d="M326.68 197.64L317.32 197.64L317.32 195.67L320.90 195.67L320.90 182.09L317.32 182.09L317.32 180.12L326.68 180.12L326.68 182.09L323.10 182.09L323.10 195.67L326.68 195.67" fill="white" fill-opacity="0.7"/>
<path d="M77.55 136.06L68.53 136.06L68.53 65.98L81.97 65.98L90.61 96.22L99.63 65.98L113.17 65.98L113.17 136.06L104.05 136.06L104.05 103.90Q104.05 98.81 104.24 92.62Q104.43 86.43 104.77 80.24Q105.10 74.04 105.49 69.05L94.54 104.96L86.48 104.96L75.92 69.92Q76.78 76.92 77.17 85.52Q77.55 94.11 77.55 103.90L77.55 136.06M133.71 136.06L124.02 136.06L142.16 65.98L154.74 65.98L172.78 136.06L163.09 136.06L158.67 117.82L138.13 117.82L133.71 136.06M145.14 88.92L140.05 109.95L156.75 109.95L151.76 89.02Q150.32 83.26 149.46 79.23Q148.59 75.20 148.40 73.76Q148.21 75.20 147.34 79.23Q146.48 83.26 145.14 88.92M206.38 137.02Q196.02 137.02 189.87 131.60Q183.73 126.17 183.73 116.67L193.23 116.67Q193.23 122.24 196.78 125.40Q200.34 128.57 206.38 128.57Q212.14 128.57 215.55 125.36Q218.96 122.14 218.96 116.76Q218.96 112.73 216.75 109.71Q214.54 106.68 210.51 105.63L200.14 102.84Q193.33 100.92 189.34 95.88Q185.36 90.84 185.36 83.93Q185.36 78.27 187.90 74Q190.45 69.72 195.06 67.37Q199.66 65.02 205.71 65.02Q211.86 65.02 216.51 67.37Q221.17 69.72 223.76 73.95Q226.35 78.17 226.35 83.74L216.94 83.74Q216.94 79.13 213.82 76.25Q210.70 73.37 205.71 73.37Q200.72 73.37 197.70 76.25Q194.67 79.13 194.67 83.74Q194.67 87.48 196.69 90.03Q198.70 92.57 202.35 93.63L213.01 96.51Q220.21 98.43 224.24 103.85Q228.27 109.28 228.27 116.76Q228.27 122.91 225.58 127.47Q222.90 132.03 217.95 134.52Q213.01 137.02 206.38 137.02M268.40 136.06L258.90 136.06L258.90 74.62L239.89 74.62L239.89 65.98L287.31 65.98L287.31 74.62L268.40 74.62L268.40 136.06M342.51 136.06L301.71 136.06L301.71 65.98L342.51 65.98L342.51 74.52L311.12 74.52L311.12 95.36L339.15 95.36L339.15 103.61L311.12 103.61L311.12 127.52L342.51 127.52L342.51 136.06M367.95 136.06L358.54 136.06L358.54 65.98L380.24 65.98Q386.67 65.98 391.47 68.52Q396.27 71.07 398.96 75.63Q401.65 80.19 401.65 86.33Q401.65 93.44 398.05 98.52Q394.45 103.61 388.50 105.72L402.61 136.06L392.14 136.06L378.80 106.78L367.95 106.78L367.95 136.06M367.95 74.43L367.95 98.33L380.24 98.33Q385.62 98.33 388.74 95.07Q391.86 91.80 391.86 86.43Q391.86 80.96 388.69 77.69Q385.52 74.43 380.24 74.43L367.95 74.43M437.17 137.02Q427.47 137.02 421.76 131.60Q416.05 126.17 416.05 116.67L416.05 85.28Q416.05 75.87 421.76 70.44Q427.47 65.02 437.17 65.02Q446.77 65.02 452.48 70.49Q458.19 75.96 458.19 85.28L448.69 85.28Q448.69 79.61 445.62 76.54Q442.54 73.47 437.17 73.47Q431.70 73.47 428.62 76.54Q425.55 79.61 425.55 85.28L425.55 116.67Q425.55 122.43 428.62 125.50Q431.70 128.57 437.17 128.57Q442.54 128.57 445.62 125.50Q448.69 122.43 448.69 116.67L458.19 116.67Q458.19 126.08 452.48 131.55Q446.77 137.02 437.17 137.02M479.31 136.06L469.62 136.06L487.76 65.98L500.34 65.98L518.38 136.06L508.69 136.06L504.27 117.82L483.73 117.82L479.31 136.06M490.74 88.92L485.65 109.95L502.35 109.95L497.36 89.02Q495.92 83.26 495.06 79.23Q494.19 75.20 NaN 73.76Q493.81 75.20 492.94 79.23Q492.08 83.26 490.74 88.92M540.75 136.06L531.34 136.06L531.34 65.98L553.04 65.98Q559.47 65.98 564.27 68.52Q569.07 71.07 571.76 75.63Q574.45 80.19 574.45 86.33Q574.45 93.44 570.85 98.52Q567.25 103.61 561.30 105.72L575.41 136.06L564.94 136.06L551.60 106.78L540.75 106.78L540.75 136.06M540.75 74.43L540.75 98.33L553.04 98.33Q558.42 98.33 561.54 95.07Q564.66 91.80 564.66 86.43Q564.66 80.96 561.49 77.69Q558.32 74.43 553.04 74.43L540.75 74.43M607.66 136.06L588.85 136.06L588.85 65.98L607.66 65.98Q614.48 65.98 619.52 68.62Q624.56 71.26 627.34 76.01Q630.13 80.76 630.13 87.20L630.13 114.75Q630.13 121.18 627.34 125.98Q624.56 130.78 619.52 133.42Q614.48 136.06 607.66 136.06M598.35 74.43L598.35 127.61L607.66 127.61Q613.71 127.61 617.17 124.16Q620.62 120.70 620.62 114.75L620.62 87.20Q620.62 81.24 617.17 77.84Q613.71 74.43 607.66 74.43L598.35 74.43M711.15 136.06L702.13 136.06L702.13 65.98L715.57 65.98L724.21 96.22L733.23 65.98L746.77 65.98L746.77 136.06L737.65 136.06L737.65 103.90Q737.65 98.81 737.84 92.62Q738.03 86.43 738.37 80.24Q738.70 74.04 739.09 69.05L728.14 104.96L720.08 104.96L709.52 69.92Q710.38 76.92 710.77 85.52Q711.15 94.11 711.15 103.90L711.15 136.06M767.31 136.06L757.62 136.06L775.76 65.98L788.34 65.98L806.38 136.06L796.69 136.06L792.27 117.82L771.73 117.82L767.31 136.06M778.74 88.92L773.65 109.95L790.35 109.95L785.36 89.02Q783.92 83.26 783.06 79.23Q782.19 75.20 NaN 73.76Q781.81 75.20 780.94 79.23Q780.08 83.26 778.74 88.92M832.11 136.06L820.69 136.06L812.62 65.98L821.07 65.98L826.26 117.05Q826.54 120.12 826.78 123.63Q827.02 127.13 827.12 129.34Q827.31 127.13 827.60 123.63Q827.89 120.12 828.37 117.05L835.09 65.98L844.59 65.98L850.83 117.05Q851.12 120.12 851.50 123.63Q851.89 127.13 852.18 129.34Q852.27 127.13 852.56 123.63Q852.85 120.12 853.14 117.05L858.42 65.98L866.67 65.98L858.32 136.06L846.80 136.06L840.75 84.22Q840.37 81.05 840.13 77.74Q839.89 74.43 839.79 72.41Q839.50 74.43 839.31 77.74Q839.12 81.05 838.74 84.22L832.11 136.06M897.58 137.02Q887.22 137.02 881.07 131.60Q874.93 126.17 874.93 116.67L884.43 116.67Q884.43 122.24 887.98 125.40Q891.54 128.57 897.58 128.57Q903.34 128.57 906.75 125.36Q910.16 122.14 910.16 116.76Q910.16 112.73 907.95 109.71Q905.74 106.68 901.71 105.63L891.34 102.84Q884.53 100.92 880.54 95.88Q876.56 90.84 876.56 83.93Q876.56 78.27 879.10 74Q881.65 69.72 886.26 67.37Q890.86 65.02 896.91 65.02Q903.06 65.02 907.71 67.37Q912.37 69.72 914.96 73.95Q917.55 78.17 917.55 83.74L908.14 83.74Q908.14 79.13 905.02 76.25Q901.90 73.37 896.91 73.37Q891.92 73.37 888.90 76.25Q885.87 79.13 885.87 83.74Q885.87 87.48 887.89 90.03Q889.90 92.57 893.55 93.63L904.21 96.51Q911.41 98.43 915.44 103.85Q919.47 109.28 919.47 116.76Q919.47 122.91 916.78 127.47Q914.10 132.03 909.15 134.52Q904.21 137.02 897.58 137.02" fill="url(#paint2_linear_0_1)"/>
<g id="Group 1">
<rect id="Rectangle 1" x="26" y="168" width="12" height="184" rx="5" fill="url(#paint3_linear_0_1)" fill-opacity="0.9"/>
</g>
<g id="Group 1_2">
<rect id="Rectangle 2" x="26" y="38" width="12" height="119" rx="5" fill="url(#paint4_linear_0_1)" fill-opacity="0.9"/>
</g>
<ellipse id="Ellipse 1" cx="148.5" cy="573" rx="215.5" ry="214" fill="url(#paint5_linear_0_1)" fill-opacity="0.4"/>
<rect id="Rectangle 3" x="1229" y="48" width="300" height="300" rx="25" fill="#FFFBFB" fill-opacity="0.9"/>
<g id="placeholder-logo"><g transform="translate(1229,48) translate(0.0,60.0) scale(1.2000)"><g fill="#666666">
  <path d="m88.05,27.65c-3.15,4 -3.2,51.2 -0.05,54.35c2.75,2.75 71.7,3.15 74.45,0.45c2.85,-2.9 2.3,-53.85 -0.65,-55.9c-1.95,-1.35 -7.15,-1.55 -36.95,-1.55l-34.7,0l-2.1,2.65zm69.45,3.35c0.65,0 1,8.6 1,23.75l0,23.75l-33,0l-33,0l-0.25,-23c-0.15,-12.6 -0.1,-23.45 0.15,-24.1c0.35,-0.85 8.9,-1.05 32.25,-0.75c17.55,0.2 32.3,0.35 32.85,0.35z"/>
  <path d="m99.15,37.3c-6.85,7.35 4.25,17.35 11.4,10.25c1.35,-1.35 2.45,-3.65 2.45,-5.05c0,-6.45 -9.35,-9.95 -13.85,-5.2z"/>
  <path d="m135,42.5c-0.7,0.85 -5.25,5.15 -10.1,9.6l-8.85,8.1l-3.2,-3.2l-3.15,-3.15l-6.35,6.3c-5.55,5.5 -6.35,6.75 -6.35,10.05l0,3.8l28.5,0l28.5,0l0,-8.6l0,-8.55l-8.15,-7.7c-9.35,-8.85 -9.15,-8.7 -10.85,-6.65zm7.25,15.2c0.95,0.9 1.75,2.9 1.75,4.45c6.35,-5.05 4.75,-7.15 4.9,-11.55c0.95,0 0,0 0,0l-6.65,7.1z"/>
  <path d="m53.65,110.75c0.1,4.8 0.45,8.65 0.75,8.5c0.35,-0.15 1.3,-0.25 2.1,-0.25c1.1,0 1.5,-1.2 1.5,-4.75l0,-4.75l3.25,5c4.9,7.5 6.2,6.75 6.55,-3.75c0.25,-8.15 0.15,-8.75 -1.7,-8.75c-1.65,0 -2.05,0.8 -2.3,4.75l-0.3,4.75l-2.8,-4.75c-4.85,-8.25 -7.25,-6.9 -7.05,4z"/>
  <path d="m91,108.9c0,9.65 0.3,10.1 6.1,10.1c5.8,0 7.15,-2.65 1.65,-3.2l-3.25,-0.3l-0.3,-6.75c-0.25,-5.95 -0.55,-6.75 -2.25,-6.75c-1.75,0 -1.95,0.7 -1.95,6.9z"/>
  <path d="m151,102.45c0,0.25 1,2.15 2.25,4.2c1.2,2.1 2.45,5.8 2.75,8.25c0.65,5.9 4,6.95 4,1.25c0.05,-2.1 1.25,-5.85 2.95,-8.9l2.9,-5.25l-2.5,0c-1.8,0 -2.8,0.85 -3.75,3.1l-1.3,3.05l-1.25,-3.05c-1.1,-2.6 -6.05,-4.8 -6.05,-2.65z"/>
  <path d="m191,107.45c0,9.05 3.4,8.85 4.25,-0.2c0.45,-5 0.35,-5.25 -1.9,-5.25c-2.2,0 -2.35,0.4 -2.35,5.45z"/>
  <path d="m180.8,104.75c-1.3,5.35 0.65,13.6 3.45,14.35c2.3,0.6 2.75,0.4 2.75,-1.2c0,-1.05 -0.45,-1.9 -1,-1.9c-0.55,0 -1,-1.6 -1,-3.5c0,-1.95 0.45,-3.5 1,-3.5c0.55,0 1,-0.7 1,-1.5c0,-0.85 -0.45,-1.5 -1,-1.5c-0.55,0 -1,-0.7 -1,-1.5c0,-2.1 -3.65,-1.9 -4.2,0.25z"/>
  <path d="m71.55,106.55c-2.2,2.25 -2.05,9.7 0.3,11.8c4.5,4.1 10.15,0.75 10.15,-6.1c0,-4.85 -2,-7.25 -6,-7.25c-1.55,0 -3.55,0.7 -4.45,1.55zm6.25,5.8c0.25,3.05 0,3.65 -1.6,3.65c-2.3,0 -3.25,-2.65 -2.05,-5.85c1.25,-3.35 3.3,-2.1 3.65,2.2z"/>
  <path d="m105.75,106.1c-2.5,1.45 -2.45,9.95 0.1,12.25c4.3,3.9 10.15,0.35 10.15,-6.2c0,-6 -5.15,-9.05 -10.25,-6.05zm6.05,6.25c0.25,3.05 0,3.65 -1.6,3.65c-2.3,0 -3.25,-2.65 -2.05,-5.85c1.25,-3.35 3.3,-2.1 3.65,2.2z"/>
  <path d="m119.2,106.2c-3.8,3.8 -0.4,12.55 4.4,11.35c1.9,-0.45 2.45,-0.3 2.15,0.65c-0.25,0.7 -1.55,1.2 -2.85,1.1c-4.05,-0.3 -5.35,0.45 -3.85,2.25c0.85,1.05 2.6,1.45 5.35,1.25l4.1,-0.3l0.3,-8.75l0.3,-8.75l-4.35,0c-2.4,0 -4.9,0.55 -5.55,1.2zm6.6,4.45c0.4,2.85 -2.15,4.85 -3.75,2.95c-0.9,-1.1 -0.9,-2 -0.05,-3.6c1.35,-2.5 3.4,-2.15 3.8,0.65z"/>
  <path d="m133.55,106.55c-2.2,2.25 -2.05,9.7 0.3,11.8c4.5,4.1 10.15,0.75 10.15,-6.1c0,-4.85 -2,-7.25 -6,-7.25c-1.55,0 -3.55,0.7 -4.45,1.55zm6.25,5.8c0.25,3.05 0,3.65 -1.6,3.65c-2.3,0 -3.25,-2.65 -2.05,-5.85c1.25,-3.35 3.3,-2.1 3.65,2.2z"/>
  <path d="m167.65,106.85c-3.9,4.3 -0.75,13.15 4.7,13.15c2.4,0 5.65,-2.75 5.65,-4.85c0,-1.4 -2.65,-1.55 -3.5,-0.15c-0.95,1.55 -4.5,1.15 -4.5,-0.5c0,-1.1 1.1,-1.5 4,-1.5c3.15,0 4,-0.35 4,-1.8c0,-5.3 -6.85,-8.25 -10.35,-4.35z"/>
  <path d="m191,117.5c0,2.15 0.4,2.6 2.25,2.3c1.5,-0.2 2.25,-1 2.25,-2.3c0,-1.3 -0.75,-2.1 -2.25,-2.3c-1.85,-0.3 -2.25,0.15 -2.25,2.3z"/>
 </g></g></g>
</g>
<defs>
<linearGradient id="paint0_linear_0_1" x1="0" y1="198" x2="1584" y2="198" gradientUnits="userSpaceOnUse">
<stop stop-color="#3D052C"/>
<stop offset="1"/>
</linearGradient>
<linearGradient id="paint1_linear_0_1" x1="323" y1="-224" x2="323" y2="352" gradientUnits="userSpaceOnUse">
<stop stop-color="#28F6F2" stop-opacity="0.4"/>
<stop offset="1" stop-color="#17908E" stop-opacity="0.7"/>
</linearGradient>
<linearGradient id="paint2_linear_0_1" x1="148.5" y1="38" x2="148.5" y2="140" gradientUnits="userSpaceOnUse">
<stop stop-color="white"/>
<stop offset="1" stop-color="#999999"/>
</linearGradient>
<linearGradient id="paint3_linear_0_1" x1="38" y1="260" x2="26" y2="260" gradientUnits="userSpaceOnUse">
<stop stop-color="#D9D9D9"/>
<stop offset="1" stop-color="#737373"/>
</linearGradient>
<linearGradient id="paint4_linear_0_1" x1="38" y1="97.5" x2="26" y2="97.5" gradientUnits="userSpaceOnUse">
<stop stop-color="#D9D9D9"/>
<stop offset="1" stop-color="#737373"/>
</linearGradient>
<linearGradient id="paint5_linear_0_1" x1="27.5" y1="434.5" x2="148.5" y2="787" gradientUnits="userSpaceOnUse">
<stop stop-color="#2E21BC"/>
<stop offset="1" stop-color="#150F56"/>
</linearGradient>
<clipPath id="clip0_0_1">
<rect width="1584" height="396" fill="white"/>
</clipPath>
</defs>
</svg>
